<svg width="360" height="108" viewBox="0 0 360 108" fill="none" xmlns="http://www.w3.org/2000/svg">
<path d="M126.124 45.0638L120.39 51.9252C118.89 50.2949 117.31 49.0568 115.651 48.2111C113.991 47.3653 112.066 46.9425 109.874 46.9425C107.179 46.9425 104.908 47.5543 103.061 48.7779C101.215 49.998 99.7288 51.6877 98.6024 53.847C97.4723 56.01 96.6571 58.5311 96.1568 61.4102C95.6566 64.2894 95.4065 67.3899 95.4065 70.7117C95.4065 74.03 95.6422 77.1287 96.1137 80.0078C96.5815 82.8906 97.3949 85.4278 98.5538 87.6196C99.7126 89.8114 101.278 91.5335 103.25 92.7859C105.223 94.0383 107.711 94.6645 110.716 94.6645C112.156 94.6645 113.534 94.5386 114.852 94.2866C116.165 94.0347 117.371 93.7684 118.469 93.4877C119.563 93.207 120.47 92.9406 121.189 92.6887C121.909 92.4404 122.364 92.2838 122.555 92.2191L125.184 100.112L123.964 100.581C123.147 100.894 122.005 101.254 120.536 101.661C119.064 102.068 117.31 102.444 115.273 102.789C113.239 103.131 111.001 103.302 108.557 103.302C100.164 103.302 93.8553 100.626 89.6302 95.2746C85.4014 89.9193 83.287 82.0754 83.287 71.7428C83.287 66.7943 83.852 62.2704 84.9821 58.1712C86.1086 54.0684 87.8145 50.545 90.0998 47.6011C92.3852 44.6571 95.2661 42.3718 98.7427 40.7451C102.216 39.1183 106.3 38.305 110.997 38.305C114.754 38.305 117.839 38.9924 120.25 40.3672C122.661 41.7456 124.619 43.3111 126.124 45.0638ZM171.87 57.9283V80.0996C171.87 83.8569 172.104 87.0024 172.572 89.536C173.043 92.0733 173.56 94.1247 174.121 95.6902C174.812 97.5689 175.564 99.0409 176.377 100.106L168.015 103.486C167.202 102.672 166.452 101.702 165.764 100.576C165.199 99.5717 164.667 98.3661 164.166 96.9589C163.666 95.5481 163.353 93.8728 163.227 91.9329C162.162 95.6902 160.456 98.5244 158.109 100.435C155.759 102.343 152.579 103.297 148.57 103.297C145.63 103.297 143.078 102.75 140.915 101.656C138.756 100.558 136.956 98.9923 135.517 96.9589C134.077 94.9219 133.012 92.4638 132.321 89.5846C131.633 86.7055 131.29 83.5114 131.29 80.0024C131.29 76.4323 131.837 73.1302 132.931 70.0963C134.029 67.0588 135.564 64.4442 137.536 62.2524C139.508 60.0606 141.873 58.3385 144.629 57.0861C147.383 55.8337 150.418 55.2075 153.736 55.2075C155.615 55.2075 157.573 55.3478 159.61 55.6285C161.643 55.9092 163.538 56.2062 165.294 56.5193C167.047 56.8324 168.534 57.1311 169.754 57.4154C170.974 57.6961 171.679 57.8671 171.87 57.9283ZM150.357 95.782C151.923 95.782 153.362 95.2512 154.676 94.1895C155.993 93.1242 157.137 91.7296 158.109 90.0057C159.077 88.2854 159.828 86.3132 160.36 84.089C160.893 81.8649 161.159 79.5957 161.159 77.2816V63.7531C160.533 63.566 159.594 63.3465 158.341 63.0945C157.089 62.8462 155.962 62.7221 154.962 62.7221C152.579 62.7221 150.622 63.1287 149.088 63.9421C147.555 64.7555 146.319 65.8819 145.38 67.3215C144.44 68.7611 143.782 70.4832 143.404 72.4878C143.03 74.4924 142.842 76.6842 142.842 79.0631C142.842 81.2549 142.905 83.353 143.031 85.3577C143.157 87.3623 143.487 89.1473 144.019 90.7129C144.548 92.2784 145.315 93.5147 146.319 94.4216C147.32 95.3285 148.666 95.782 150.357 95.782ZM194.414 103.118C190.843 103.118 188.213 102.132 186.521 100.16C184.83 98.1843 183.984 95.6633 183.984 92.597V36.5181L194.694 34.5477V91.5604C194.694 93.0036 194.975 94.0059 195.536 94.5674C196.102 95.1324 196.917 95.4149 197.982 95.4149C198.608 95.4149 199.218 95.3825 199.812 95.3178C200.406 95.2566 200.955 95.163 201.459 95.037C202.02 94.9111 202.52 94.7869 202.959 94.6645L204.277 101.423C203.46 101.736 202.551 102.019 201.55 102.271C200.672 102.523 199.639 102.726 198.452 102.881C197.26 103.039 195.914 103.118 194.414 103.118ZM243.161 61.2213L237.153 66.9544C236.214 65.8891 235.258 64.9804 234.286 64.2282C233.315 63.476 232.015 63.1 230.389 63.1C229.449 63.1 228.4 63.2421 227.241 63.5264C226.083 63.8071 225.003 64.4945 224.002 65.5886C222.998 66.6863 222.169 68.2986 221.514 70.4256C220.855 72.5562 220.526 75.4371 220.526 79.0685C220.526 82.7646 220.855 85.6923 221.514 87.8517C222.169 90.0111 223.013 91.6864 224.046 92.8777C225.078 94.0689 226.191 94.8355 227.382 95.1774C228.573 95.5229 229.732 95.6956 230.858 95.6956C231.733 95.6956 232.64 95.6183 233.579 95.4635C234.519 95.3052 235.427 95.1162 236.305 94.8967C237.184 94.6771 237.95 94.4738 238.605 94.2866C239.264 94.0995 239.75 93.9429 240.063 93.817L242.692 100.581C242.505 100.642 242.082 100.83 241.423 101.143C240.768 101.456 239.876 101.769 238.745 102.082C237.619 102.395 236.273 102.694 234.707 102.978C233.142 103.259 231.389 103.399 229.449 103.399C225.818 103.399 222.718 102.85 220.148 101.753C217.582 100.659 215.469 99.1092 213.81 97.1046C212.151 95.1 210.929 92.6887 210.145 89.8707C209.364 87.0528 208.973 83.9217 208.973 80.4775C208.973 76.3459 209.52 72.6821 210.614 69.4863C211.712 66.294 213.231 63.6182 215.171 61.4588C217.11 59.2958 219.396 57.6511 222.027 56.5247C224.657 55.3982 227.475 54.835 230.48 54.835C233.424 54.835 235.915 55.3982 237.952 56.5247C239.985 57.6511 241.722 59.2167 243.161 61.2213ZM288.06 57.9283V80.0996C288.06 83.8569 288.296 87.0024 288.767 89.536C289.235 92.0733 289.752 94.1247 290.317 95.6902C291.004 97.5689 291.756 99.0409 292.573 100.106L284.211 103.486C283.398 102.672 282.645 101.702 281.954 100.576C281.393 99.5717 280.862 98.3661 280.362 96.9589C279.858 95.5481 279.545 93.8728 279.423 91.9329C278.357 95.6902 276.65 98.5244 274.299 100.435C271.953 102.343 268.775 103.297 264.766 103.297C261.822 103.297 259.27 102.75 257.111 101.656C254.952 100.558 253.152 98.9923 251.713 96.9589C250.269 94.9219 249.204 92.4638 248.517 89.5846C247.829 86.7055 247.486 83.5114 247.486 80.0024C247.486 76.4323 248.033 73.1302 249.127 70.0963C250.224 67.0588 251.759 64.4442 253.732 62.2524C255.704 60.0606 258.066 58.3385 260.82 57.0861C263.576 55.8337 266.614 55.2075 269.932 55.2075C271.811 55.2075 273.769 55.3478 275.806 55.6285C277.839 55.9092 279.732 56.2062 281.485 56.5193C283.241 56.8324 284.729 57.1311 285.949 57.4154C287.169 57.6961 287.873 57.8671 288.06 57.9283ZM266.553 95.782C268.118 95.782 269.558 95.2512 270.872 94.1895C272.189 93.1242 273.331 91.7296 274.299 90.0057C275.271 88.2854 276.023 86.3132 276.556 84.089C277.089 81.8649 277.355 79.5957 277.355 77.2816V63.7531C276.729 63.566 275.789 63.3465 274.537 63.0945C273.285 62.8462 272.156 62.7221 271.152 62.7221C268.773 62.7221 266.817 63.1287 265.284 63.9421C263.751 64.7555 262.515 65.8819 261.575 67.3215C260.636 68.7611 259.977 70.4832 259.6 72.4878C259.225 74.4924 259.038 76.6842 259.038 79.0631C259.038 81.2549 259.101 83.353 259.227 85.3577C259.349 87.3623 259.677 89.1473 260.21 90.7129C260.742 92.2784 261.511 93.5147 262.515 94.4216C263.515 95.3285 264.861 95.782 266.553 95.782ZM310.604 103.118C307.037 103.118 304.408 102.132 302.717 100.16C301.025 98.1843 300.18 95.6633 300.18 92.597V36.5181L310.89 34.5477V91.5604C310.89 93.0036 311.171 94.0059 311.732 94.5674C312.297 95.1324 313.112 95.4149 314.178 95.4149C314.804 95.4149 315.414 95.3825 316.008 95.3178C316.602 95.2566 317.149 95.163 317.649 95.037C318.214 94.9111 318.716 94.7869 319.155 94.6645L320.467 101.423C319.654 101.736 318.747 102.019 317.746 102.271C316.868 102.523 315.835 102.726 314.647 102.881C313.456 103.039 312.108 103.118 310.604 103.118ZM359.357 61.2213L353.343 66.9544C352.404 65.8891 351.45 64.9804 350.482 64.2282C349.51 63.476 348.211 63.1 346.585 63.1C345.645 63.1 344.596 63.2421 343.437 63.5264C342.278 63.8071 341.197 64.4945 340.193 65.5886C339.192 66.6863 338.363 68.2986 337.704 70.4256C337.049 72.5562 336.722 75.4371 336.722 79.0685C336.722 82.7646 337.049 85.6923 337.704 87.8517C338.363 90.0111 339.208 91.6864 340.241 92.8777C341.274 94.0689 342.386 94.8355 343.578 95.1774C344.765 95.5229 345.924 95.6956 347.054 95.6956C347.929 95.6956 348.836 95.6183 349.775 95.4635C350.714 95.3052 351.623 95.1162 352.501 94.8967C353.376 94.6771 354.142 94.4738 354.801 94.2866C355.46 94.0995 355.945 93.9429 356.258 93.817L358.887 100.581C358.7 100.642 358.277 100.83 357.619 101.143C356.96 101.456 356.068 101.769 354.941 102.082C353.815 102.395 352.469 102.694 350.903 102.978C349.338 103.259 347.585 103.399 345.645 103.399C342.01 103.399 338.91 102.85 336.344 101.753C333.778 100.659 331.665 99.1092 330.006 97.1046C328.343 95.1 327.121 92.6887 326.34 89.8707C325.556 87.0528 325.164 83.9217 325.164 80.4775C325.164 76.3459 325.712 72.6821 326.81 69.4863C327.904 66.294 329.423 63.6182 331.366 61.4588C333.306 59.2958 335.591 57.6511 338.222 56.5247C340.853 55.3982 343.671 54.835 346.676 54.835C349.62 54.835 352.109 55.3982 354.142 56.5247C356.179 57.6511 357.918 59.2167 359.357 61.2213ZM18.9108 67.0122C21.4718 60.8369 25.8397 57.0715 32.9186 58.2765C35.4791 58.7283 35.9309 60.2345 38.0396 60.8369C41.805 62.0419 44.5161 61.7406 48.2815 60.3851C53.2518 58.4271 56.8666 55.2641 62.1381 62.7949C63.4931 64.9036 63.7949 68.3677 64.2468 70.7776C65.4517 77.2541 66.0542 83.5799 64.9998 90.0564C63.9455 96.9848 60.4814 104.365 52.6493 104.817C47.679 105.118 44.6667 101.353 40.2988 100.148C38.0396 99.5453 35.3285 101.654 33.5211 102.407C24.1829 106.022 19.6644 92.3157 18.1582 86.1404C17.857 84.9355 16.0496 85.3873 16.3508 86.5923C17.857 93.0688 20.1162 98.9428 25.689 102.859C32.1655 107.227 38.3408 99.9976 44.6666 104.365C57.1678 112.95 65.4517 99.0934 66.9578 88.2491C68.0121 80.8694 66.3554 72.8862 64.9998 65.6566C63.9455 60.3851 60.1801 56.9209 54.9086 56.1678C47.8296 55.2641 45.5704 62.9456 37.1359 58.1258C34.6323 56.5156 31.6681 55.7746 28.7014 56.0172C22.8273 56.1684 18.9113 61.59 16.9533 66.4097C16.6521 67.6146 18.4589 68.067 18.9108 67.0122Z" fill="#EBE4DA"/>
<path d="M27.0597 56.7552C24.3486 54.7972 13.0524 47.5676 10.04 52.8391C8.98573 54.6465 9.7388 59.3156 10.9437 61.123C13.5042 65.0391 16.8172 66.9971 20.8844 69.1057C27.3609 72.5699 33.3855 76.6365 39.4102 80.7031C43.3262 83.2636 37.3015 89.8912 35.946 91.9993C32.7825 96.6689 30.072 94.5598 26.4572 91.9993C20.5832 87.9327 15.0104 83.4142 9.43758 78.8957C4.46725 74.9797 -0.0512429 69.8588 3.1117 62.328C4.76847 58.2613 9.28696 55.7008 12.9017 53.7428C13.9561 53.1404 13.0524 51.4836 11.998 52.086C3.56354 56.4539 -4.72089 66.3946 3.26231 75.5822C7.32894 80.1007 12.4499 83.7154 17.2696 87.4808C20.734 90.1919 24.198 92.7526 27.6616 95.1628C29.1677 96.2166 31.2769 98.3252 33.2349 98.3252C35.946 98.3252 39.4102 90.3425 40.6146 88.3845C41.82 86.5771 45.5854 82.6611 42.7237 80.7031C35.3435 75.7328 27.9634 70.7625 20.1313 66.6958C18.3239 65.7921 16.6671 64.7378 15.161 63.3823C16.0647 64.1354 8.23264 54.0441 13.6548 53.5922C18.3239 53.291 22.5406 56.0021 26.3066 58.5625C27.0597 59.165 27.9633 57.5083 27.0597 56.7552Z" fill="#EBE4DA"/>
<path d="M11.2299 61.8761C10.6274 63.6835 9.12124 64.8884 8.51878 66.6958C8.21754 67.9008 10.025 68.3531 10.3262 67.1477C10.778 65.3403 12.4348 64.1354 13.0373 62.328C13.4891 61.123 11.5311 60.6712 11.2299 61.8761ZM16.6521 66.0934C15.7484 67.4489 15.1459 68.8045 14.6941 70.3106C14.3928 71.5155 16.2002 71.9679 16.5014 70.7625C16.9533 69.4074 17.4051 68.202 18.3088 66.9971C18.9113 65.9428 17.2545 65.039 16.6515 66.0934M21.9236 69.5575C21.4718 71.9674 20.5681 74.2272 19.0619 76.3352C18.3088 77.3896 19.9656 78.2933 20.7187 77.2389C22.2248 75.1303 23.2792 72.7205 23.731 70.0094C23.8816 68.9551 22.0737 68.3526 21.9236 69.5575ZM28.2495 73.0217C27.647 75.2809 26.4421 77.6914 25.5384 79.9501C25.0866 81.0044 26.8934 81.6074 27.3458 80.4019C28.2495 78.1427 29.4544 75.8834 30.0569 73.4736C30.3581 72.2686 28.5507 71.8168 28.2495 73.0217ZM34.4248 77.3896C33.5211 78.8957 32.6174 80.5531 31.7137 82.0592C31.1112 83.113 32.768 84.1673 33.3704 82.9624C34.1235 81.3056 35.0272 79.7994 36.0815 78.2933C36.684 77.3896 35.0272 76.3352 34.4242 77.3896M33.5211 40.7899C38.4914 45.7602 41.2025 52.2367 41.2025 59.3156C41.2025 60.5206 43.1605 60.5206 43.1605 59.3156C43.0093 51.7848 40.1482 44.8565 34.8766 39.4343C33.9729 38.5306 32.6174 39.8862 33.5211 40.7899Z" fill="#EBE4DA"/>
<path d="M41.3531 50.128C42.1062 45.9108 46.0222 40.1874 50.8419 39.8861C54.0048 39.5849 57.3184 39.8861 60.6319 40.0373H62.2887C64.2467 43.8022 63.1924 46.212 59.1252 46.9651C57.1678 47.7182 54.9085 48.0194 52.7999 48.3206C49.0345 48.7725 45.1179 48.4718 41.3531 47.5676C40.1482 47.2663 39.6958 49.0737 40.9012 49.375C47.679 50.8811 54.6073 50.7305 61.0838 48.17C64.548 46.6639 68.0121 42.1454 65.4511 38.6812C64.548 37.4763 61.6863 38.0788 60.6319 38.0788C57.0172 38.0788 53.2518 37.7775 49.637 38.0788C44.6666 38.38 40.4488 45.1577 39.5457 49.5256C39.3945 50.7305 41.2025 51.1829 41.3531 50.128Z" fill="#EBE4DA"/>
</svg>
